<svg xmlns="http://www.w3.org/2000/svg" viewBox="0 0 24 24"><path d="M23.994 6.124a9.23 9.23 0 0 0-.24-2.19c-.317-1.31-1.062-2.31-2.18-3.043A5.022 5.022 0 0 0 19.63.28a10.49 10.49 0 0 0-1.838-.178C17.032.058 16.272.043 14.91.043H9.089c-1.362 0-2.122.015-2.882.06a10.49 10.49 0 0 0-1.838.177 5.024 5.024 0 0 0-1.943.612C1.307 1.578.56 2.578.244 3.888a9.23 9.23 0 0 0-.24 2.19C-.006 6.848-.01 7.608-.01 8.97v6.058c0 1.362.004 2.122.014 2.892.02.74.09 1.47.24 2.19.317 1.31 1.062 2.31 2.18 3.043a5.022 5.022 0 0 0 1.943.612c.61.1 1.22.157 1.838.178.76.044 1.52.058 2.882.058h5.822c1.362 0 2.122-.014 2.882-.058a10.49 10.49 0 0 0 1.838-.178 5.022 5.022 0 0 0 1.943-.612c1.118-.733 1.863-1.733 2.18-3.043a9.23 9.23 0 0 0 .24-2.19c.01-.77.014-1.53.014-2.892V8.97c0-1.362-.004-2.122-.014-2.846zM17.883 12.382c0 .674-.07 1.348-.26 1.998a4.167 4.167 0 0 1-1.616 2.31c-.68.493-1.435.74-2.262.792-.148.01-.3.014-.448.014-.202 0-.404-.018-.604-.054a2.418 2.418 0 0 1-1.614-1.074 2.382 2.382 0 0 1-.37-1.29c0-.696.266-1.3.788-1.77a2.78 2.78 0 0 1 1.312-.7c.462-.128.93-.186 1.404-.252.344-.048.686-.098 1.022-.186.118-.032.174-.09.174-.218V9.08a.277.277 0 0 0-.052-.182.264.264 0 0 0-.192-.068l-.038.004-4.706.954a.284.284 0 0 0-.222.282v6.102c0 .164-.006.328-.018.492-.032.488-.132.96-.342 1.404a3.298 3.298 0 0 1-1.218 1.386c-.56.37-1.186.572-1.862.636a3.456 3.456 0 0 1-.938-.036 2.408 2.408 0 0 1-1.622-1.09 2.382 2.382 0 0 1-.36-1.282c0-.709.274-1.318.808-1.788a2.82 2.82 0 0 1 1.312-.69c.46-.124.924-.18 1.394-.246.348-.048.694-.1 1.034-.192.1-.028.148-.09.148-.198V7.044c0-.2.058-.37.2-.502a.598.598 0 0 1 .352-.164l5.596-1.14a.848.848 0 0 1 .164-.018c.222 0 .368.118.41.332.014.066.02.134.02.2v6.63z"/></svg>
