<svg xmlns="http://www.w3.org/2000/svg" viewBox="0 0 24 24"><path d="M1.175 12.225c-.051 0-.094.046-.101.1l-.233 2.154.233 2.105c.007.058.05.098.101.098.05 0 .09-.04.099-.098l.255-2.105-.27-2.154c-.009-.057-.05-.1-.1-.1m-.899.828c-.06 0-.091.037-.104.094L0 14.479l.172 1.308c.013.06.045.094.104.094.057 0 .094-.037.104-.09l.2-1.312-.2-1.334c-.01-.057-.047-.09-.104-.09m1.835-1.585c-.067 0-.114.053-.121.116l-.213 2.895.213 2.809c.007.065.054.116.12.116.068 0 .114-.051.123-.116l.239-2.809-.239-2.895c-.009-.065-.055-.116-.122-.116m.824-.576c-.076 0-.131.06-.138.131l-.193 3.471.193 3.354c.007.072.062.131.138.131s.13-.059.139-.131l.218-3.354-.218-3.471c-.009-.071-.063-.131-.14-.131m.826-.522c-.087 0-.149.069-.155.149l-.176 3.993.176 3.836c.006.082.068.149.155.149.084 0 .148-.067.155-.149l.199-3.836-.199-3.993c-.007-.08-.071-.149-.155-.149m.839-.382c-.096 0-.166.076-.172.166l-.157 4.375.157 4.21c.006.09.076.166.172.166.094 0 .163-.076.172-.166l.178-4.21-.178-4.375c-.009-.09-.078-.166-.172-.166m.838-.24c-.104 0-.182.084-.189.183l-.14 4.615.14 4.46c.007.1.085.183.19.183.103 0 .18-.083.189-.183l.158-4.46-.158-4.615c-.009-.099-.086-.183-.19-.183m.844-.107c-.114 0-.199.091-.205.199l-.122 4.722.122 4.569c.006.11.091.2.205.2.113 0 .198-.09.206-.2l.138-4.569-.138-4.722c-.008-.108-.093-.199-.206-.199m2.499-.414c-.12 0-.213.098-.219.215l-.104 5.136.104 4.567c.006.12.099.215.22.215.119 0 .212-.095.219-.215l.118-4.567-.118-5.136c-.007-.117-.1-.215-.22-.215m-.838.248c-.12 0-.211.097-.218.214l-.118 4.888.118 4.584c.007.117.098.213.218.213.117 0 .21-.096.217-.213l.134-4.584-.134-4.888c-.007-.117-.1-.214-.217-.214m1.677-.436c-.13 0-.23.106-.236.232l-.088 5.324.088 4.531c.006.127.106.231.236.231.127 0 .228-.104.235-.231l.1-4.531-.1-5.324c-.007-.126-.108-.232-.235-.232m.844-.138c-.14 0-.247.113-.252.249l-.074 5.462.074 4.494c.005.137.112.249.252.249.138 0 .245-.112.252-.249l.084-4.494-.084-5.462c-.007-.136-.114-.249-.252-.249m.853-.076c-.148 0-.262.12-.268.265l-.056 5.538.056 4.443c.006.147.12.265.268.265.146 0 .26-.118.267-.265l.063-4.443-.063-5.538c-.007-.145-.12-.265-.267-.265m1.705.168c-.155 0-.275.128-.28.282l-.043 5.088.043 4.384c.005.155.125.282.28.282.154 0 .274-.127.281-.282l.049-4.384-.049-5.088c-.007-.154-.127-.282-.281-.282m-.852-.087c-.155 0-.273.127-.28.28l-.048 5.175.048 4.413c.007.154.125.28.28.28.153 0 .272-.126.279-.28l.054-4.413-.054-5.175c-.007-.153-.126-.28-.28-.28m4.25-.735c-.085 0-.167.015-.246.044a5.606 5.606 0 0 0-5.301-3.793c-.37 0-.738.044-1.097.127-.13.03-.175.063-.177.124v8.89c.002.064.054.117.12.124h6.701a2.408 2.408 0 0 0 0-4.816"/></svg>
